<mxfile host="65bd71144e">
    <diagram id="piIeMQWpUwdeLsbxhuyu" name="Page-1">
        <mxGraphModel dx="1429" dy="266" grid="1" gridSize="10" guides="1" tooltips="1" connect="1" arrows="1" fold="1" page="1" pageScale="1" pageWidth="850" pageHeight="1100" math="0" shadow="0">
            <root>
                <mxCell id="0"/>
                <mxCell id="1" parent="0"/>
                <mxCell id="4" value="" style="edgeStyle=orthogonalEdgeStyle;rounded=0;orthogonalLoop=1;jettySize=auto;html=1;" edge="1" parent="1" source="2" target="3">
                    <mxGeometry relative="1" as="geometry"/>
                </mxCell>
                <mxCell id="2" value="pie title What Voldemort doesn't have?&#10;         &quot;FRIENDS&quot; : 2&#10;         &quot;FAMILY&quot; : 3&#10;         &quot;NOSE&quot; : 8" style="shadow=0;dashed=0;align=left;strokeWidth=1;shape=mxgraph.mermaid.abstract.mermaid;labelBackgroundColor=#ffffff;noLabel=1;" vertex="1" parent="1">
                    <mxGeometry x="200" y="430" width="250" height="220" as="geometry"/>
                </mxCell>
                <mxCell id="3" value="" style="whiteSpace=wrap;html=1;shadow=0;dashed=0;align=left;strokeWidth=1;labelBackgroundColor=#ffffff;" vertex="1" parent="1">
                    <mxGeometry x="-140" y="550" width="180" height="60" as="geometry"/>
                </mxCell>
            </root>
        </mxGraphModel>
    </diagram>
</mxfile>